{"title":"Solomons.Perjury.2.2015.720p.BluRay.x264-WiKi","uid":12601772,"size":7385854613,"categoryP":"video","categoryS":"hd___movies","magnet":"?xt=urn:btih:13b7825b79acd9b2f7f7960329ef2dd88604154f&amp;dn=Solomons.Perjury.2.2015.720p.BluRay.x264-WiKi&amp;tr=udp%3A%2F%2Ftracker.leechers-paradise.org%3A6969&amp;tr=udp%3A%2F%2Fzer0day.ch%3A1337&amp;tr=udp%3A%2F%2Fopen.demonii.com%3A1337&amp;tr=udp%3A%2F%2Ftracker.coppersurfer.tk%3A6969&amp;tr=udp%3A%2F%2Fexodus.desync.com%3A6969","seeders":0,"leechers":1,"uploader":null,"files":4,"time":1445333907,"description":"Video\r\nID                                       : 1\r\nFormat                                   : AVC\r\nFormat/Info                              : Advanced Video Codec\r\nFormat profile                           :   \r\nFormat settings, CABAC                   : Yes\r\nFormat settings, ReFrames                : 12 frames\r\nCodec ID                                 : V_MPEG4/ISO/AVC\r\nDuration                                 : 2h 26mn\r\nBit rate                                 : 6 000 Kbps\r\nWidth                                    : 1 280 pixels\r\nHeight                                   : 534 pixels\r\nDisplay aspect ratio                     : 2.40:1\r\nFrame rate mode                          : Constant\r\nFrame rate                               : 23.976 fps\r\nColor space                              : YUV\r\nChroma subsampling                       : 4:2:0\r\nBit depth                                : 8 bits\r\nScan type                                : Progressive\r\nBits/(Pixel*Frame)                       : 0.366\r\nStream size                              : 6.03 GiB (88%)\r\nWriting library                          : x264 core 129 r2245+704+36 8e61944 tMod+MixAQ [  :2:0 X86_64]\r\nEncoding settings                        : cabac=1 / ref=12 / deblock=1:-3:-3 / analyse=0x3:0x133 / me=umh / subme=11 / psy=1 / fade_compensate=0.00 / psy_rd=1.05:0.10 / mixed_ref=1 / me_range=32 / chroma_me=1 / trellis=2 / 8x8dct=1 / cqm=0 / deadzone=21,11 / fast_pskip=0 / chroma_qp_offset=-3 / threads=18 / lookahead_threads=3 / sliced_threads=0 / nr=0 / decimate=0 / interlaced=0 / bluray_compat=0 / constrained_intra=0 / fgo=0 / bframes=10 / b_pyramid=2 / b_adapt=2 / b_bias=0 / direct=3 / weightb=1 / open_gop=0 / weightp=2 / keyint=250 / keyint_min=23 / scenecut=40 / intra_refresh=0 / rc_lookahead=80 / rc=2pass / mbtree=1 / bitrate=6000 / ratetol=1.0 / qcomp=0.70 / qpmin=0 / qpmax=69 / qpstep=4 / cplxblur=20.0 / qblur=0.5 / ip_ratio=1.40 / aq=1 / aq-strength=0.85 / aq-sensitivity=10.00 / aq-ifactor=1.00 / aq-pfactor=1.00 / aq-bfactor=1.00 / aq2=0\r\nLanguage                                 : Japanese\r\nDefault                                  : Yes\r\nForced                                   : No\r\nDURATION                                 : 02:26:42.794000000\r\nNUMBER_OF_FRAMES                         : 211056\r\nNUMBER_OF_BYTES                          : 6599461977\r\n_STATISTICS_WRITING_APP                  : mkvmerge v8.4.0 ('A better way to fly') 64bit\r\n_STATISTICS_WRITING_DATE_UTC             : 2015-10-19 15:53:30\r\n_STATISTICS_TAGS                         : BPS DURATION NUMBER_OF_FRAMES NUMBER_OF_BYTES\r\n\r\nAudio\r\nID                                       : 2\r\nFormat                                   : AC-3\r\nFormat/Info                              : Audio Coding 3\r\nMode extension                           : CM (complete main)\r\nFormat settings, Endianness              : Big\r\nCodec ID                                 : A_AC3\r\nDuration                                 : 2h 26mn\r\nBit rate mode                            : Constant\r\nBit rate                                 : 640 Kbps\r\nChannel(s)                               : 6 channels\r\nChannel positions                        : Front: L C R, Side: L R, LFE\r\nSampling rate                            : 48.0 KHz\r\nCompression mode                         : Lossy\r\nStream size                              : 672 MiB (10%)\r\nLanguage                                 : Japanese\r\nDefault                                  : Yes\r\nForced                                   : No\r\n\r\nText #1\r\nID                                       : 3\r\nFormat                                   : ASS\r\nCodec ID                                 : S_TEXT/ASS\r\nCodec ID/Info                            : Advanced Sub Station Alpha\r\nCompression mode                         : Lossless\r\nTitle                                    : Simplified\r\nLanguage                                 : Chinese\r\nDefault                                  : Yes\r\nForced                                   : No\r\n\r\nText #2\r\nID                                       : 4\r\nFormat                                   : ASS\r\nCodec ID                                 : S_TEXT/ASS\r\nCodec ID/Info                            : Advanced Sub Station Alpha\r\nCompression mode                         : Lossless\r\nTitle                                    : Traditional\r\nLanguage                                 : Chinese\r\nDefault                                  : No\r\nForced                                   : No","torrent":{"xt":"urn:btih:13b7825b79acd9b2f7f7960329ef2dd88604154f","amp;dn":"Solomons.Perjury.2.2015.720p.BluRay.x264-WiKi","amp;tr":["udp%3A%2F%2Ftracker.leechers-paradise.org%3A6969","udp%3A%2F%2Fzer0day.ch%3A1337","udp%3A%2F%2Fopen.demonii.com%3A1337","udp%3A%2F%2Ftracker.coppersurfer.tk%3A6969","udp%3A%2F%2Fexodus.desync.com%3A6969"],"infoHash":"13b7825b79acd9b2f7f7960329ef2dd88604154f","infoHashBuffer":{"type":"Buffer","data":[19,183,130,91,121,172,217,178,247,247,150,3,41,239,45,216,134,4,21,79]},"announce":[],"urlList":[]}}